<svg width="52" height="52" viewBox="0 0 52 52" fill="none" xmlns="http://www.w3.org/2000/svg">
<path d="M41.5 28.9277C47.287 31.2172 51 34.4516 51 38.4277C51 45.3313 39.8071 50.9277 26 50.9277C12.1929 50.9277 1 45.3313 1 38.4277C1 34.6856 4.28878 31.3275 9.5 29.0367" stroke="#10385B" stroke-width="2" stroke-linecap="round"/>
<path d="M37.5 32.7734C40.881 34.0529 43 35.8889 43 37.9288C43 41.7948 35.3888 44.9288 26 44.9288C16.6112 44.9288 9 41.7948 9 37.9288C9 36.0542 10.7895 34.3517 13.7036 33.0952" stroke="#10385B" stroke-width="2" stroke-linecap="round"/>
<circle cx="25.5" cy="15.4277" r="7.5" stroke="#04BBF2" stroke-width="2"/>
<path d="M38 15.8563C38 12.6169 36.7249 9.21836 34.5 6.92773C32.2751 4.63711 28.6464 2.92773 25.5 2.92773C22.3536 2.92773 18.7249 4.92888 16.5 7.2195C14.2751 9.51012 13 12.6169 13 15.8563C13 20.8669 17.5303 28.1052 25.5 35.9277C33.4697 28.1052 38 20.8669 38 15.8563ZM25.5 38.9277C15.8325 29.881 11 22.1887 11 15.8563C11 11.897 12.5277 8.09986 15.247 5.30021C17.9662 2.50056 21.6544 0.927734 25.5 0.927734C29.3456 0.927734 33.0338 2.50056 35.753 5.30021C38.4723 8.09986 40 11.897 40 15.8563C40 22.1887 35.1675 29.881 25.5 38.9277Z" fill="#14BFF3"/>
</svg>
