<svg width="70" height="53" viewBox="0 0 70 53" fill="none" xmlns="http://www.w3.org/2000/svg">
<path d="M23.1543 25.721V7.57089C23.1543 5.55888 24.7854 3.92773 26.7975 3.92773H45M51.5562 30.6486H28.2815" stroke="#10385B" stroke-width="2" stroke-linecap="round" stroke-linejoin="round"/>
<path d="M29.1582 51.064L37.6475 30.6523" stroke="#10385B" stroke-width="2" stroke-linecap="round" stroke-linejoin="round"/>
<path d="M49.4685 51.064L40.9766 30.6523" stroke="#10385B" stroke-width="2" stroke-linecap="round" stroke-linejoin="round"/>
<path d="M29.1582 11.125L43 10.9268" stroke="#10385B" stroke-width="2" stroke-linecap="round" stroke-linejoin="round"/>
<path d="M36 16.9277H43" stroke="#10385B" stroke-width="2" stroke-linecap="round" stroke-linejoin="round"/>
<path d="M37.6465 23.9707L42 23.9285" stroke="#10385B" stroke-width="2" stroke-linecap="round" stroke-linejoin="round"/>
<path d="M10.4956 21.0378C13.6261 21.0378 16.1639 18.5 16.1639 15.3695C16.1639 12.239 13.6261 9.70117 10.4956 9.70117C7.36508 9.70117 4.8273 12.239 4.8273 15.3695C4.8273 18.5 7.36508 21.0378 10.4956 21.0378Z" stroke="#04BBF2" stroke-width="2" stroke-linecap="round" stroke-linejoin="round"/>
<path d="M26.6807 28.9323L18.504 24.4591C16.6469 23.4426 14.5666 22.9121 12.4495 22.9121H8.09982C6.91783 22.9121 5.80676 23.201 4.82702 23.7132C2.55235 24.8925 1 27.2697 1 30.0119V35.3676C1 37.482 2.71257 39.1972 4.82702 39.1999V48.858C4.82702 49.667 5.48368 50.3237 6.29269 50.3237H14.2304C15.042 50.3237 15.6987 49.667 15.6987 48.8554V28.4411L24.3587 33.1796C25.2045 33.6419 26.2657 33.3319 26.728 32.4862L27.3741 31.3042C27.8364 30.4584 27.5265 29.3972 26.6807 28.9349V28.9323Z" stroke="#04BBF2" stroke-width="2" stroke-linecap="round" stroke-linejoin="round"/>
<path d="M26.6807 28.9338L31.6319 19.709" stroke="#04BBF2" stroke-width="2" stroke-linecap="round" stroke-linejoin="round"/>
<path d="M48.4734 22.1718L50.4734 18.7077L52.7234 14.8105L58.7857 18.3107L54.5357 25.6719C53.9357 26.7111 53.5418 26.0603 53.4199 25.605L52.5047 22.1896L49.7724 22.9218C47.7251 23.4703 47.9737 23.0389 48.4721 22.1739L48.4734 22.1718Z" stroke="#04BBF2" stroke-width="2" stroke-linecap="round" stroke-linejoin="round"/>
<path d="M68.2058 22.1718L66.2058 18.7077L63.9558 14.8105L57.8934 18.3107L62.1434 25.6719C62.7434 26.7111 63.1373 26.0603 63.2592 25.605L64.1744 22.1896L66.9067 22.9218C68.9541 23.4703 68.7055 23.0389 68.207 22.1739L68.2058 22.1718Z" stroke="#04BBF2" stroke-width="2" stroke-linecap="round" stroke-linejoin="round"/>
<circle cx="58.0007" cy="10.9277" r="9" fill="white" stroke="#04BBF2" stroke-width="2"/>
<path d="M56.4195 11.0707L56.1256 11.4752L56.4195 11.0707L54.7843 9.88265H56.8055C57.0654 9.88265 57.2958 9.71527 57.3761 9.46806L58.0007 7.54577L58.6253 9.46806L59.1008 9.31355L58.6253 9.46806C58.7056 9.71527 58.936 9.88265 59.1959 9.88265H61.2171L59.5819 11.0707L59.8758 11.4752L59.5819 11.0707C59.3717 11.2235 59.2837 11.4943 59.364 11.7415L59.8395 11.587L59.364 11.7415L59.9886 13.6638L58.3534 12.4758C58.1431 12.323 57.8583 12.323 57.648 12.4758L56.0128 13.6638L56.6374 11.7415C56.7177 11.4943 56.6298 11.2235 56.4195 11.0707Z" stroke="#04BBF2"/>
</svg>
