<svg width="16" height="21" viewBox="0 0 16 21" fill="none" xmlns="http://www.w3.org/2000/svg">
<path d="M0 21C0 18.8783 0.842855 16.8434 2.34315 15.3431C3.84344 13.8429 5.87827 13 8 13C10.1217 13 12.1566 13.8429 13.6569 15.3431C15.1571 16.8434 16 18.8783 16 21H14C14 19.4087 13.3679 17.8826 12.2426 16.7574C11.1174 15.6321 9.5913 15 8 15C6.4087 15 4.88258 15.6321 3.75736 16.7574C2.63214 17.8826 2 19.4087 2 21H0ZM8 12C6.81331 12 5.65327 11.6481 4.66658 10.9888C3.67988 10.3295 2.91085 9.39246 2.45672 8.2961C2.0026 7.19975 1.88378 5.99335 2.11529 4.82946C2.3468 3.66558 2.91824 2.59648 3.75736 1.75736C4.59647 0.918247 5.66557 0.346802 6.82946 0.115291C7.99334 -0.11622 9.19974 0.00259972 10.2961 0.456726C11.3925 0.910851 12.3295 1.67989 12.9888 2.66658C13.6481 3.65328 14 4.81331 14 6C14 7.5913 13.3679 9.11742 12.2426 10.2426C11.1174 11.3679 9.5913 12 8 12ZM8 10C8.79113 10 9.56448 9.76541 10.2223 9.32588C10.8801 8.88636 11.3928 8.26164 11.6955 7.53074C11.9983 6.79983 12.0775 5.99557 11.9231 5.21964C11.7688 4.44372 11.3878 3.73099 10.8284 3.17158C10.269 2.61217 9.55628 2.2312 8.78036 2.07686C8.00444 1.92252 7.20017 2.00173 6.46927 2.30448C5.73836 2.60724 5.11365 3.11993 4.67412 3.77772C4.2346 4.43552 4 5.20888 4 6C4 7.06087 4.42143 8.07828 5.17157 8.82843C5.92172 9.57858 6.93913 10 8 10Z" fill="#2B98F7"/>
</svg>
