<svg width="20" height="20" viewBox="0 0 20 20" fill="none" xmlns="http://www.w3.org/2000/svg">
<path d="M4.235 4.453C2.95818 5.77594 2.176 7.4983 2.02009 9.33028C1.86418 11.1623 2.34405 12.992 3.37896 14.5117C4.41387 16.0314 5.94065 17.1482 7.70239 17.6742C9.46412 18.2003 11.3533 18.1034 13.052 17.4C13.1201 16.8149 13.0374 16.2222 12.812 15.678C12.2057 14.6238 11.4465 13.6654 10.559 12.834C10.221 12.479 10.243 12.206 10.364 11.397L10.377 11.306C10.459 10.752 10.597 10.424 12.462 10.128C12.7657 10.0412 13.0908 10.0698 13.3747 10.2082C13.6587 10.3467 13.8814 10.5852 14 10.878L14.116 11.05C14.3344 11.4006 14.665 11.667 15.054 11.806C15.219 11.881 15.424 11.976 15.699 12.131C16.351 12.504 16.351 12.925 16.351 13.847V13.947C16.3519 14.2941 16.3184 14.6405 16.251 14.981C17.0179 14.0185 17.5525 12.8921 17.8131 11.6893C18.0736 10.4866 18.0532 9.23991 17.7533 8.04633C17.4535 6.85276 16.8823 5.74444 16.0843 4.80763C15.2862 3.87081 14.2828 3.13074 13.152 2.645C12.5742 2.99718 12.0442 3.42235 11.575 3.91C11.44 4.095 11.248 5.042 10.625 5.12C10.4208 5.13412 10.2157 5.13111 10.012 5.111C9.39001 5.071 8.54 5.016 8.268 5.755C8.15237 6.15725 8.12431 6.57961 8.18572 6.99361C8.24713 7.40762 8.39658 7.80365 8.624 8.155C8.6714 8.23202 8.70023 8.319 8.70821 8.40908C8.71619 8.49916 8.70311 8.58985 8.67 8.674C8.62334 8.86551 8.52187 9.03926 8.37801 9.174C8.22375 9.04564 8.08332 8.90153 7.959 8.74401C7.65568 8.31456 7.23533 7.98133 6.748 7.784C6.564 7.733 6.362 7.691 6.165 7.649C5.616 7.532 5 7.4 4.85 7.093C4.75669 6.81478 4.72096 6.52047 4.745 6.228C4.77597 5.7705 4.70775 5.31171 4.545 4.883C4.47408 4.71991 4.36986 4.57345 4.239 4.453H4.235ZM10 20C8.02219 20 6.08879 19.4135 4.4443 18.3147C2.79981 17.2159 1.51809 15.6541 0.761209 13.8268C0.00433284 11.9996 -0.193701 9.98891 0.192152 8.0491C0.578004 6.10929 1.53041 4.32746 2.92894 2.92894C4.32746 1.53041 6.10929 0.578004 8.0491 0.192152C9.98891 -0.193701 11.9996 0.00433284 13.8268 0.761209C15.6541 1.51809 17.2159 2.79981 18.3147 4.4443C19.4135 6.08879 20 8.02219 20 10C20 12.6522 18.9464 15.1957 17.0711 17.0711C15.1957 18.9464 12.6522 20 10 20Z" fill="#2B98F7"/>
</svg>
