<svg width="16" height="14" viewBox="0 0 16 14" fill="none" xmlns="http://www.w3.org/2000/svg">
<path d="M0.800488 0H15.2005C15.4127 0 15.6161 0.0819442 15.7662 0.227806C15.9162 0.373667 16.0005 0.571498 16.0005 0.777778V13.2222C16.0005 13.4285 15.9162 13.6263 15.7662 13.7722C15.6161 13.9181 15.4127 14 15.2005 14H0.800488C0.588315 14 0.384832 13.9181 0.234803 13.7722C0.0847737 13.6263 0.000488281 13.4285 0.000488281 13.2222V0.777778C0.000488281 0.571498 0.0847737 0.373667 0.234803 0.227806C0.384832 0.0819442 0.588315 0 0.800488 0ZM14.4005 3.29622L8.05809 8.81845L1.60049 3.27911V12.4444H14.4005V3.29622ZM2.00929 1.55556L8.04929 6.73711L14.0005 1.55556H2.00929Z" fill="#2B98F7"/>
</svg>
