<svg width="18" height="19" viewBox="0 0 18 19" fill="none" xmlns="http://www.w3.org/2000/svg">
<path d="M6.36662 7.68201C7.30496 9.33049 8.67014 10.6957 10.3186 11.634L11.2006 10.4C11.3422 10.2003 11.5521 10.0594 11.7906 10.0041C12.0291 9.94883 12.2796 9.98295 12.4946 10.1C13.9089 10.8729 15.4708 11.3378 17.0776 11.464C17.3289 11.4839 17.5634 11.598 17.7342 11.7834C17.905 11.9689 17.9994 12.2119 17.9986 12.464V16.926C17.9999 17.1748 17.9083 17.4151 17.7419 17.6C17.5755 17.7849 17.3461 17.9011 17.0986 17.926C14.805 18.1623 12.4875 17.8843 10.3149 17.1121C8.1423 16.3398 6.16921 15.0929 4.53926 13.462C2.90932 11.8311 1.66353 9.85726 0.892585 7.68419C0.121641 5.51113 -0.155062 3.1935 0.0826188 0.900013C0.107493 0.652489 0.223734 0.423124 0.408643 0.256706C0.593552 0.0902876 0.833852 -0.00123409 1.08262 1.25703e-05H5.53962C5.7917 -0.000775183 6.03478 0.0936697 6.2202 0.264443C6.40562 0.435217 6.51971 0.669719 6.53962 0.921013C6.66547 2.52621 7.12928 4.08667 7.90062 5.50001C8.01939 5.71563 8.05446 5.96749 7.99911 6.20736C7.94375 6.44722 7.80187 6.65824 7.60062 6.80001L6.36262 7.68401L6.36662 7.68201ZM3.84462 7.02501L5.74462 5.66801C5.2054 4.50411 4.83597 3.26885 4.64762 2.00001H2.01062C2.00062 2.16601 2.00062 2.33301 2.00062 2.50001C2.00062 6.08044 3.42294 9.51421 5.95468 12.046C8.48642 14.5777 11.9202 16 15.5006 16C15.6676 16 15.8346 16 16.0006 15.99V13.353C14.7316 13.1637 13.4964 12.7933 12.3326 12.253L10.9756 14.153C10.4293 13.9407 9.89863 13.6901 9.38762 13.403L9.32962 13.37C7.36919 12.254 5.74564 10.6304 4.62962 8.67001L4.59662 8.61201C4.30953 8.10101 4.0589 7.57035 3.84662 7.02401L3.84462 7.02501Z" fill="#2B98F7"/>
</svg>
