<svg width="16" height="21" viewBox="0 0 16 21" fill="none" xmlns="http://www.w3.org/2000/svg">
<path d="M0.000488281 21C0.000488281 18.8783 0.843343 16.8434 2.34363 15.3431C3.84392 13.8429 5.87876 13 8.00049 13C10.1222 13 12.1571 13.8429 13.6573 15.3431C15.1576 16.8434 16.0005 18.8783 16.0005 21H0.000488281ZM9.00049 15.083V19H13.6595C13.302 17.9914 12.6817 17.0966 11.8626 16.408C11.0436 15.7193 10.0555 15.2619 9.00049 15.083ZM7.00049 19V15.083C5.94548 15.2619 4.9574 15.7193 4.13834 16.408C3.31928 17.0966 2.69896 17.9914 2.34149 19H7.00049ZM8.00049 12C6.8138 12 5.65376 11.6481 4.66707 10.9888C3.68037 10.3295 2.91134 9.39246 2.45721 8.2961C2.00309 7.19975 1.88427 5.99335 2.11578 4.82946C2.34729 3.66558 2.91873 2.59648 3.75785 1.75736C4.59696 0.918247 5.66606 0.346802 6.82995 0.115291C7.99383 -0.11622 9.20023 0.00259972 10.2966 0.456726C11.3929 0.910851 12.33 1.67989 12.9893 2.66658C13.6486 3.65328 14.0005 4.81331 14.0005 6C14.0005 7.5913 13.3683 9.11742 12.2431 10.2426C11.1179 11.3679 9.59179 12 8.00049 12ZM8.00049 10C8.79161 10 9.56497 9.76541 10.2228 9.32588C10.8806 8.88636 11.3933 8.26164 11.696 7.53074C11.9988 6.79983 12.078 5.99557 11.9236 5.21964C11.7693 4.44372 11.3883 3.73099 10.8289 3.17158C10.2695 2.61217 9.55677 2.2312 8.78085 2.07686C8.00493 1.92252 7.20066 2.00173 6.46975 2.30448C5.73885 2.60724 5.11414 3.11993 4.67461 3.77772C4.23508 4.43552 4.00049 5.20888 4.00049 6C4.00049 7.06087 4.42192 8.07828 5.17206 8.82843C5.92221 9.57858 6.93962 10 8.00049 10Z" fill="#2B98F7"/>
</svg>
