<svg width="29" height="29" viewBox="0 0 29 29" fill="none" xmlns="http://www.w3.org/2000/svg">
<g filter="url(#filter0_d_0_22)">
<path d="M14.3051 22.6102C18.8919 22.6102 22.6102 18.8919 22.6102 14.3051C22.6102 9.71831 18.8919 6 14.3051 6C9.71831 6 6 9.71831 6 14.3051C6 18.8919 9.71831 22.6102 14.3051 22.6102Z" fill="#F0F0F0"/>
<path d="M14.4139 6.00391C12.8309 6.00316 11.2798 6.449 9.93879 7.29021C8.59779 8.13142 7.5213 9.33386 6.83301 10.7594H21.9923C21.3042 9.33425 20.2281 8.13205 18.8876 7.29087C17.547 6.44969 15.9965 6.00363 14.4139 6.00391Z" fill="#FF9811"/>
<path d="M14.4139 22.8297C15.9966 22.8302 17.5474 22.3842 18.888 21.543C20.2287 20.7018 21.3049 19.4995 21.9931 18.0742H6.83301C7.5213 19.4998 8.59779 20.7022 9.93879 21.5434C11.2798 22.3846 12.8309 22.8305 14.4139 22.8297Z" fill="#6DA544"/>
<path d="M14.4139 17.3437C16.0303 17.3437 17.3406 16.0333 17.3406 14.4169C17.3406 12.8006 16.0303 11.4902 14.4139 11.4902C12.7975 11.4902 11.4872 12.8006 11.4872 14.4169C11.4872 16.0333 12.7975 17.3437 14.4139 17.3437Z" fill="#0052B4"/>
<path d="M14.4137 16.2454C15.4237 16.2454 16.2425 15.4267 16.2425 14.4167C16.2425 13.4067 15.4237 12.5879 14.4137 12.5879C13.4037 12.5879 12.585 13.4067 12.585 14.4167C12.585 15.4267 13.4037 16.2454 14.4137 16.2454Z" fill="#F0F0F0"/>
<path d="M14.4141 12.1602L14.9781 13.44L16.3683 13.2888L15.542 14.4175L16.3683 15.5461L14.9781 15.395L14.4141 16.6748L13.8502 15.395L12.46 15.5461L13.2863 14.4175L12.46 13.2888L13.8502 13.44L14.4141 12.1602Z" fill="#0052B4"/>
</g>
<defs>
<filter id="filter0_d_0_22" x="0" y="0" width="28.6102" height="28.8297" filterUnits="userSpaceOnUse" color-interpolation-filters="sRGB">
<feFlood flood-opacity="0" result="BackgroundImageFix"/>
<feColorMatrix in="SourceAlpha" type="matrix" values="0 0 0 0 0 0 0 0 0 0 0 0 0 0 0 0 0 0 127 0" result="hardAlpha"/>
<feOffset/>
<feGaussianBlur stdDeviation="3"/>
<feComposite in2="hardAlpha" operator="out"/>
<feColorMatrix type="matrix" values="0 0 0 0 0 0 0 0 0 0 0 0 0 0 0 0 0 0 0.18 0"/>
<feBlend mode="normal" in2="BackgroundImageFix" result="effect1_dropShadow_0_22"/>
<feBlend mode="normal" in="SourceGraphic" in2="effect1_dropShadow_0_22" result="shape"/>
</filter>
</defs>
</svg>
