<svg width="29" height="29" viewBox="0 0 29 29" fill="none" xmlns="http://www.w3.org/2000/svg">
<g filter="url(#filter0_d_0_58)">
<mask id="mask0_0_58" style="mask-type:alpha" maskUnits="userSpaceOnUse" x="6" y="6" width="17" height="17">
<circle cx="14.3051" cy="14.3051" r="8.30509" fill="#C4C4C4"/>
</mask>
<g mask="url(#mask0_0_58)">
<path d="M39.682 28.8589V16.9551H-11.0698V28.8589C-11.0698 30.4931 -10.0143 31.8263 -8.70833 31.8263H37.322C38.6239 31.8236 39.682 30.4972 39.682 28.8589Z" fill="#50B748"/>
<path d="M39.682 12.8555H-11.0698V16.956H39.682V12.8555Z" fill="#D1232A"/>
<path d="M39.6819 -0.0172904C39.6819 -1.78769 38.6237 -3.22852 37.3204 -3.22852H-8.70985C-10.0159 -3.22852 -11.0713 -1.79041 -11.0713 -0.0172904V12.8548H39.6819V-0.0172904Z" fill="#58595B"/>
<path d="M11.8047 10.5996C11.851 10.9877 12.3385 12.4599 12.8315 12.5062L16.2783 18.5255C16.3056 18.5718 16.3505 18.595 16.3818 18.5773C16.4132 18.5596 16.4145 18.5078 16.3886 18.4615L12.9405 12.4422C13.1516 11.9955 12.1138 10.8311 11.8047 10.5996Z" fill="white"/>
<path d="M11.7861 10.6029C11.8311 10.9815 12.3077 12.4537 12.8184 12.5286L16.2611 18.5398C16.2774 18.5712 16.3052 18.5952 16.3388 18.6065C16.3567 18.6113 16.3758 18.6088 16.3919 18.5997C16.4034 18.5922 16.4127 18.5819 16.4189 18.5697C16.4252 18.5575 16.428 18.5439 16.4273 18.5302C16.4268 18.5044 16.4197 18.4791 16.4069 18.4567C16.4069 18.4567 12.9696 12.4605 12.9696 12.4455C12.9877 12.4024 12.997 12.3561 12.9968 12.3093C12.9968 11.7769 12.1048 10.795 11.8243 10.5852L11.7861 10.5566V10.6029ZM16.3497 18.567C16.327 18.5585 16.3081 18.542 16.2966 18.5207L12.8443 12.4864H12.8334C12.3676 12.4373 11.9087 11.0741 11.8338 10.6438C12.1389 10.8998 12.9491 11.8136 12.9491 12.2984C12.9504 12.3452 12.9415 12.3916 12.9233 12.4346V12.4442L16.3742 18.4785C16.384 18.4945 16.3891 18.5128 16.3892 18.5316C16.3899 18.5383 16.3889 18.545 16.3863 18.5512C16.3836 18.5574 16.3795 18.5629 16.3742 18.567C16.3704 18.5688 16.3662 18.5698 16.3619 18.5698C16.3577 18.5698 16.3535 18.5688 16.3497 18.567Z" fill="black"/>
<path d="M16.8167 10.625C16.5048 10.8592 15.4725 12.0168 15.6755 12.4689L12.1864 18.461C12.1592 18.5073 12.1619 18.5591 12.1864 18.5768C12.2109 18.5945 12.264 18.5768 12.2913 18.5251L15.779 12.5329C16.2815 12.4866 16.7704 11.009 16.8167 10.625Z" fill="white"/>
<path d="M16.8041 10.6065C16.5249 10.8163 15.6288 11.7995 15.6288 12.332C15.6277 12.3786 15.6361 12.4249 15.6533 12.4682C15.6438 12.4832 12.1684 18.4603 12.1684 18.4603C12.155 18.4825 12.1475 18.5079 12.1466 18.5338C12.1452 18.5424 12.1452 18.5511 12.1466 18.5597C12.1484 18.5688 12.1522 18.5773 12.1576 18.5849C12.163 18.5924 12.1699 18.5986 12.1779 18.6033C12.2187 18.6264 12.2759 18.6033 12.3141 18.5434L15.799 12.5513C16.3124 12.4859 16.7932 11.0096 16.8381 10.6297V10.582L16.8041 10.6065ZM12.2024 18.5597C12.199 18.558 12.196 18.5555 12.1936 18.5524C12.1912 18.5493 12.1896 18.5458 12.1888 18.542C12.1881 18.5366 12.1881 18.5311 12.1888 18.5257C12.1894 18.5068 12.195 18.4885 12.2051 18.4725L15.6928 12.4682V12.4587C15.675 12.4155 15.6667 12.3691 15.6683 12.3225C15.6683 11.8363 16.4854 10.9198 16.7877 10.6651C16.7128 11.0968 16.2512 12.4627 15.7827 12.5036H15.7718L12.2787 18.508C12.2555 18.5543 12.2201 18.5706 12.2024 18.5597Z" fill="black"/>
<path d="M16.1225 14.9477C16.1225 17.0095 14.8655 18.6805 14.3113 18.6805C13.757 18.6805 12.5 17.0095 12.5 14.9477C12.5 12.8858 13.7584 11.2148 14.3113 11.2148C14.8642 11.2148 16.1225 12.8858 16.1225 14.9477Z" fill="#D0232A"/>
<path d="M15.7475 12.9902C15.2482 14.2476 15.2482 15.6482 15.7475 16.9055C16.2468 15.6482 16.2468 14.2476 15.7475 12.9902Z" fill="black"/>
<path d="M12.8759 12.9902C12.3747 14.2472 12.3747 15.6486 12.8759 16.9055C13.3752 15.6482 13.3752 14.2476 12.8759 12.9902Z" fill="black"/>
<path d="M14.658 14.9443C14.658 15.2167 14.5027 15.4414 14.3107 15.4414C14.1187 15.4414 13.9648 15.2194 13.9648 14.9443C13.9648 14.6692 14.1201 14.4473 14.3107 14.4473C14.5014 14.4473 14.658 14.6706 14.658 14.9443Z" fill="white"/>
<path d="M13.9629 12.8732C13.9629 13.7135 14.0923 14.4094 14.2611 14.5238V11.2227C14.0923 11.3371 13.9629 12.033 13.9629 12.8732Z" fill="white"/>
<path d="M14.659 12.8732C14.659 12.033 14.5228 11.3371 14.3594 11.2227V14.5278C14.5282 14.4094 14.659 13.7107 14.659 12.8732Z" fill="white"/>
<path d="M14.3594 15.3672V18.6669C14.5282 18.5525 14.659 17.858 14.659 17.0164C14.659 16.1748 14.5282 15.4816 14.3594 15.3672Z" fill="white"/>
<path d="M13.9629 17.0164C13.9629 17.858 14.0923 18.5525 14.2611 18.6669V15.3672C14.0923 15.4816 13.9629 16.1761 13.9629 17.0164Z" fill="white"/>
</g>
</g>
<defs>
<filter id="filter0_d_0_58" x="0" y="0" width="28.6102" height="28.6102" filterUnits="userSpaceOnUse" color-interpolation-filters="sRGB">
<feFlood flood-opacity="0" result="BackgroundImageFix"/>
<feColorMatrix in="SourceAlpha" type="matrix" values="0 0 0 0 0 0 0 0 0 0 0 0 0 0 0 0 0 0 127 0" result="hardAlpha"/>
<feOffset/>
<feGaussianBlur stdDeviation="3"/>
<feComposite in2="hardAlpha" operator="out"/>
<feColorMatrix type="matrix" values="0 0 0 0 0 0 0 0 0 0 0 0 0 0 0 0 0 0 0.18 0"/>
<feBlend mode="normal" in2="BackgroundImageFix" result="effect1_dropShadow_0_58"/>
<feBlend mode="normal" in="SourceGraphic" in2="effect1_dropShadow_0_58" result="shape"/>
</filter>
</defs>
</svg>
