<svg width="14" height="17" viewBox="0 0 14 17" fill="none" xmlns="http://www.w3.org/2000/svg">
<path d="M13.1993 8.50952C13.1985 7.06228 12.8099 5.64169 12.0741 4.39549C11.3382 3.1493 10.2819 2.12302 9.01499 1.4234C7.74809 0.72378 6.31689 0.37637 4.87023 0.417304C3.42357 0.458238 2.0143 0.886021 0.788988 1.65616L2.56462 2.41026L0.170264 3.42763L2.56462 4.44501L0.170264 5.46238L2.56379 6.47311L0.169434 7.49048L2.56379 8.50785L0.169434 9.52523L2.56379 10.5426L0.169434 11.56L2.56379 12.5773L0.169434 13.5947L2.56379 14.6121L0.788988 15.3662C2.01469 16.1361 3.42429 16.5635 4.87115 16.6039C6.31801 16.6444 7.74928 16.2965 9.01611 15.5963C10.2829 14.8962 11.339 13.8694 12.0746 12.6228C12.8101 11.3762 13.1982 9.95528 13.1984 8.50785L13.1993 8.50952Z" fill="#751A46"/>
</svg>
