<svg width="29" height="29" viewBox="0 0 29 29" fill="none" xmlns="http://www.w3.org/2000/svg">
<g filter="url(#filter0_d_0_38)">
<path d="M14.5 23C19.1944 23 23 19.1944 23 14.5C23 9.80558 19.1944 6 14.5 6C9.80558 6 6 9.80558 6 14.5C6 19.1944 9.80558 23 14.5 23Z" fill="#F0F0F0"/>
<path d="M7.50674 9.12109C6.80989 10.0265 6.29793 11.0602 6 12.1632H10.5488L7.50674 9.12109Z" fill="#0052B4"/>
<path d="M22.8892 12.1652C22.5912 11.0621 22.0793 10.0285 21.3824 9.12305L18.3403 12.1652H22.8892Z" fill="#0052B4"/>
<path d="M6.00293 16.7266C6.30088 17.8296 6.81284 18.8632 7.50967 19.7687L10.5518 16.7266H6.00293Z" fill="#0052B4"/>
<path d="M19.7697 7.50674C18.8642 6.80989 17.8306 6.29793 16.7275 6V10.5488L19.7697 7.50674Z" fill="#0052B4"/>
<path d="M9.12158 21.3839C10.027 22.0807 11.0607 22.5927 12.1637 22.8906V18.3418L9.12158 21.3839Z" fill="#0052B4"/>
<path d="M12.1647 6.00195C11.0617 6.2999 10.028 6.81186 9.12256 7.50869L12.1647 10.5508V6.00195Z" fill="#0052B4"/>
<path d="M16.7271 22.8887C17.8301 22.5907 18.8637 22.0788 19.7692 21.3819L16.7271 18.3398V22.8887Z" fill="#0052B4"/>
<path d="M18.3403 16.7266L21.3824 19.7687C22.0793 18.8632 22.5912 17.8296 22.8892 16.7266H18.3403Z" fill="#0052B4"/>
<path d="M22.9263 13.3917H15.6075V6.07197C14.8714 5.97601 14.126 5.97601 13.3899 6.07197V13.3917H6.07197C5.97601 14.1277 5.97601 14.8731 6.07197 15.6092H13.3917V22.928C14.1277 23.024 14.8731 23.024 15.6092 22.928V15.6075H22.928C23.024 14.8714 23.024 14.126 22.928 13.3899L22.9263 13.3917Z" fill="#D80027"/>
<path d="M16.7163 16.7168L20.5088 20.5093C20.6827 20.3354 20.8494 20.1536 21.0088 19.964L17.7616 16.7168H16.7181H16.7163Z" fill="#D80027"/>
<path d="M12.2822 16.7168L8.48975 20.5093C8.66367 20.6832 8.84542 20.8496 9.035 21.0084L12.2822 17.7612V16.7168Z" fill="#D80027"/>
<path d="M12.2818 12.2827L8.48843 8.49023C8.3145 8.66416 8.14811 8.84591 7.98926 9.03549L11.2365 12.2827H12.28H12.2818Z" fill="#D80027"/>
<path d="M16.7163 12.2819L20.5088 8.4894C20.3349 8.31547 20.1531 8.14909 19.9635 7.99023L16.7163 11.2374V12.2819Z" fill="#D80027"/>
</g>
<defs>
<filter id="filter0_d_0_38" x="0" y="0" width="29" height="29" filterUnits="userSpaceOnUse" color-interpolation-filters="sRGB">
<feFlood flood-opacity="0" result="BackgroundImageFix"/>
<feColorMatrix in="SourceAlpha" type="matrix" values="0 0 0 0 0 0 0 0 0 0 0 0 0 0 0 0 0 0 127 0" result="hardAlpha"/>
<feOffset/>
<feGaussianBlur stdDeviation="3"/>
<feComposite in2="hardAlpha" operator="out"/>
<feColorMatrix type="matrix" values="0 0 0 0 0 0 0 0 0 0 0 0 0 0 0 0 0 0 0.18 0"/>
<feBlend mode="normal" in2="BackgroundImageFix" result="effect1_dropShadow_0_38"/>
<feBlend mode="normal" in="SourceGraphic" in2="effect1_dropShadow_0_38" result="shape"/>
</filter>
</defs>
</svg>
