<svg width="29" height="29" viewBox="0 0 29 29" fill="none" xmlns="http://www.w3.org/2000/svg">
<g filter="url(#filter0_d_0_10)">
<path d="M14.3061 22.6121C18.8928 22.6121 22.6111 18.8938 22.6111 14.307C22.6111 9.72027 18.8928 6.00195 14.3061 6.00195C9.71929 6.00195 6.00098 9.72027 6.00098 14.307C6.00098 18.8938 9.71929 22.6121 14.3061 22.6121Z" fill="white"/>
<path d="M22.1052 11.3594H16.6587C16.8953 13.3052 16.897 15.2724 16.6637 17.2186H22.1168C22.7785 15.3209 22.7744 13.2544 22.1052 11.3594Z" fill="#EFECEC"/>
<path d="M16.659 11.893H22.1046V11.8856C21.5385 10.2918 20.5273 8.89384 19.1909 7.85727C17.8545 6.8207 16.2489 6.18903 14.5645 6.03711C15.9174 6.77875 16.3127 9.12826 16.659 11.893Z" fill="#429945"/>
<path d="M14.565 22.5747C16.2525 22.4227 17.8608 21.7893 19.1987 20.7497C20.5365 19.7101 21.5477 18.3081 22.1118 16.7105C22.1118 16.7022 22.1176 16.6939 22.1201 16.6855H16.6637C16.3207 19.4636 15.9237 21.8297 14.565 22.5747Z" fill="#0B0B0B"/>
<path d="M6 14.3069C5.99974 15.2983 6.16651 16.2826 6.49332 17.2186H18.1869C18.4205 15.2724 18.4191 13.3052 18.1827 11.3594H6.50495C6.17011 12.306 5.99934 13.3028 6 14.3069Z" fill="#EFEFEF"/>
<path d="M6.50739 11.885V11.8925H18.1843C17.8364 9.12853 16.9859 6.77902 15.633 6.03737C15.3714 6.01412 15.1065 6 14.839 6C13.0125 6.00007 11.2308 6.5659 9.73888 7.6197C8.24696 8.6735 7.11807 10.1635 6.50739 11.885Z" fill="#49A948"/>
<path d="M18.1876 16.6836H6.49316L6.50147 16.7085C7.11024 18.4335 8.23903 19.9271 9.73228 20.9837C11.2255 22.0402 13.0097 22.6076 14.8389 22.6076C15.1064 22.6076 15.3713 22.5943 15.6329 22.5711C16.9916 21.8294 17.8429 19.4633 18.1876 16.6836Z" fill="#151515"/>
<path d="M6 14.3068C6.03071 15.9799 6.56766 17.6045 7.54008 18.9664C8.5125 20.3283 9.87476 21.3636 11.4473 21.9358V6.67773C9.87469 7.24988 8.51238 8.28514 7.53994 9.64706C6.5675 11.009 6.03059 12.6336 6 14.3068H6Z" fill="#E73B36"/>
</g>
<defs>
<filter id="filter0_d_0_10" x="0" y="0" width="28.6111" height="28.6122" filterUnits="userSpaceOnUse" color-interpolation-filters="sRGB">
<feFlood flood-opacity="0" result="BackgroundImageFix"/>
<feColorMatrix in="SourceAlpha" type="matrix" values="0 0 0 0 0 0 0 0 0 0 0 0 0 0 0 0 0 0 127 0" result="hardAlpha"/>
<feOffset/>
<feGaussianBlur stdDeviation="3"/>
<feComposite in2="hardAlpha" operator="out"/>
<feColorMatrix type="matrix" values="0 0 0 0 0 0 0 0 0 0 0 0 0 0 0 0 0 0 0.18 0"/>
<feBlend mode="normal" in2="BackgroundImageFix" result="effect1_dropShadow_0_10"/>
<feBlend mode="normal" in="SourceGraphic" in2="effect1_dropShadow_0_10" result="shape"/>
</filter>
</defs>
</svg>
